<svg xmlns="http://www.w3.org/2000/svg" xmlns:xlink="http://www.w3.org/1999/xlink" width="500" zoomAndPan="magnify" viewBox="0 0 375 374.999991" height="500" preserveAspectRatio="xMidYMid meet" version="1.0"><defs><g/><clipPath id="263fdf8f69"><rect x="0" width="100" y="0" height="147"/></clipPath></defs><g fill="#f2eeeb" fill-opacity="1"><g transform="translate(98.521683, 240.834697)"><g><path d="M 83.796875 -105.125 C 84.203125 -105.125 84.40625 -104.925781 84.40625 -104.53125 C 84.40625 -104.132812 84.203125 -103.9375 83.796875 -103.9375 C 83.398438 -103.9375 83.203125 -103.734375 83.203125 -103.328125 L 83.203125 0 C 83.203125 0.394531 83.003906 0.59375 82.609375 0.59375 L 78.84375 0.59375 C 78.539062 0.59375 78.34375 0.492188 78.25 0.296875 L 30.9375 -72.984375 C 29.132812 -75.691406 26.378906 -77.046875 22.671875 -77.046875 C 19.773438 -76.941406 17.273438 -75.863281 15.171875 -73.8125 C 13.066406 -71.757812 12.015625 -69.234375 12.015625 -66.234375 L 12.015625 -1.203125 C 12.015625 -0.796875 12.210938 -0.59375 12.609375 -0.59375 C 13.015625 -0.59375 13.21875 -0.394531 13.21875 0 C 13.21875 0.394531 13.015625 0.59375 12.609375 0.59375 L 10.21875 0.59375 C 9.8125 0.59375 9.609375 0.394531 9.609375 0 C 9.609375 -0.394531 9.8125 -0.59375 10.21875 -0.59375 C 10.613281 -0.59375 10.8125 -0.796875 10.8125 -1.203125 L 10.8125 -66.234375 C 10.8125 -69.535156 11.988281 -72.335938 14.34375 -74.640625 C 16.695312 -76.941406 19.472656 -78.09375 22.671875 -78.09375 C 24.773438 -78.195312 26.78125 -77.75 28.6875 -76.75 L 10.96875 -104.234375 C 10.863281 -104.429688 10.863281 -104.628906 10.96875 -104.828125 C 11.0625 -105.023438 11.210938 -105.125 11.421875 -105.125 L 19.828125 -105.125 C 20.023438 -105.125 20.175781 -105.023438 20.28125 -104.828125 L 82 -9.015625 L 82 -103.328125 C 82 -103.734375 81.75 -103.9375 81.25 -103.9375 C 80.945312 -103.9375 80.796875 -104.132812 80.796875 -104.53125 C 80.796875 -104.925781 80.945312 -105.125 81.25 -105.125 Z M 83.796875 -105.125 "/></g></g></g><g transform="matrix(1, 0, 0, 1, 166, 124)"><g clip-path="url(#263fdf8f69)"><g fill="#f2eeeb" fill-opacity="1"><g transform="translate(1.302801, 117.174066)"><g><path d="M 91.09375 -102.5 C 90.894531 -102.5 90.695312 -102.453125 90.5 -102.359375 C 90.40625 -102.253906 90.359375 -102.101562 90.359375 -101.90625 L 90.359375 -1.1875 C 90.359375 -0.789062 90.601562 -0.59375 91.09375 -0.59375 C 91.394531 -0.59375 91.546875 -0.394531 91.546875 0 C 91.546875 0.394531 91.394531 0.59375 91.09375 0.59375 L 81.765625 0.59375 C 81.367188 0.59375 81.171875 0.394531 81.171875 0 C 81.171875 -0.394531 81.367188 -0.59375 81.765625 -0.59375 C 82.160156 -0.59375 82.359375 -0.789062 82.359375 -1.1875 L 82.359375 -41.765625 C 82.359375 -45.523438 81.441406 -48.910156 79.609375 -51.921875 C 77.785156 -54.929688 75.367188 -57.320312 72.359375 -59.09375 C 69.347656 -60.875 66.015625 -61.765625 62.359375 -61.765625 C 56.335938 -61.765625 51.351562 -59.546875 47.40625 -55.109375 C 44.144531 -51.148438 39.992188 -49.222656 34.953125 -49.328125 C 31.597656 -49.328125 28.5625 -50.238281 25.84375 -52.0625 C 23.132812 -53.894531 21.1875 -56.335938 20 -59.390625 L 20 -1.1875 C 20 -0.789062 20.195312 -0.59375 20.59375 -0.59375 C 20.988281 -0.59375 21.1875 -0.394531 21.1875 0 C 21.1875 0.394531 20.988281 0.59375 20.59375 0.59375 L 11.25 0.59375 C 10.863281 0.59375 10.671875 0.394531 10.671875 0 C 10.671875 -0.394531 10.863281 -0.59375 11.25 -0.59375 C 11.644531 -0.59375 11.84375 -0.789062 11.84375 -1.1875 L 11.84375 -101.90625 C 11.84375 -102.300781 11.644531 -102.5 11.25 -102.5 C 10.863281 -102.5 10.671875 -102.695312 10.671875 -103.09375 C 10.671875 -103.488281 10.863281 -103.6875 11.25 -103.6875 L 20.59375 -103.6875 C 20.988281 -103.6875 21.1875 -103.488281 21.1875 -103.09375 C 21.1875 -102.695312 20.988281 -102.5 20.59375 -102.5 C 20.195312 -102.5 20 -102.300781 20 -101.90625 L 20 -65.46875 C 20 -61.320312 21.453125 -57.789062 24.359375 -54.875 C 27.273438 -51.96875 30.804688 -50.515625 34.953125 -50.515625 C 39.597656 -50.410156 43.453125 -52.1875 46.515625 -55.84375 C 50.753906 -60.582031 56.035156 -62.953125 62.359375 -62.953125 C 66.804688 -62.953125 70.878906 -61.644531 74.578125 -59.03125 C 78.285156 -56.414062 80.878906 -52.984375 82.359375 -48.734375 L 82.359375 -101.90625 C 82.359375 -102.300781 82.160156 -102.5 81.765625 -102.5 C 81.367188 -102.5 81.171875 -102.695312 81.171875 -103.09375 C 81.171875 -103.488281 81.367188 -103.6875 81.765625 -103.6875 L 91.09375 -103.6875 C 91.394531 -103.6875 91.546875 -103.488281 91.546875 -103.09375 C 91.546875 -102.695312 91.394531 -102.5 91.09375 -102.5 Z M 91.09375 -102.5 "/></g></g></g></g></g></svg>